<svg width="79" height="55" viewBox="0 0 79 55" fill="none" xmlns="http://www.w3.org/2000/svg">
<path d="M77.0928 2H76.5928V2.5H77.0928V2ZM77.33 2H77.83V1.5H77.33V2ZM77.0928 1.99503H77.5928V1.49503H77.0928V1.99503ZM2.85554 1.99503H2.35554V2.49503H2.85554V1.99503ZM2.85554 1V0.5H2.35554V1H2.85554ZM78.33 1H78.83V0.5H78.33V1ZM78.33 51.7447V52.2447H78.83V51.7447H78.33ZM77.33 51.7447L77.33 51.2447L77.33 51.2447L77.33 51.7447ZM77.0928 51.7447H76.5928V52.2448L77.0929 52.2447L77.0928 51.7447ZM77.0928 50.7447V50.2447H76.5928V50.7447H77.0928ZM77.33 50.7447V51.2447H77.83V50.7447H77.33ZM1.60022 4.25532V3.75532H1.10022V4.25532H1.60022ZM75.1534 4.25532H75.6534V3.75532H75.1534V4.25532ZM1.60022 53H1.10022V53.5H1.60022V53ZM75.1534 53V53.5H75.6534V53H75.1534ZM0.60022 3.25532V2.75532H0.10022V3.25532H0.60022ZM0.60022 54H0.10022V54.5H0.60022V54ZM76.1534 54V54.5H76.6534V54H76.1534ZM76.1534 3.25532H76.6534V2.75532H76.1534V3.25532ZM5.11086 14.5319H4.61086V15.0319H5.11086V14.5319ZM69.3875 14.5319V15.0319H69.8875V14.5319H69.3875ZM5.11086 13.5319V13.0319H4.61086V13.5319H5.11086ZM69.3875 13.5319H69.8875V13.0319H69.3875V13.5319ZM69.3875 24.6809V25.1809H69.8875V24.6809H69.3875ZM5.11086 24.6809H4.61086V25.1809H5.11086V24.6809ZM69.3875 23.6809H69.8875V23.1809H69.3875V23.6809ZM5.11086 23.6809V23.1809H4.61086V23.6809H5.11086ZM5.11086 34.8298H4.61086V35.3298H5.11086V34.8298ZM69.3875 34.8298V35.3298H69.8875V34.8298H69.3875ZM5.11086 33.8298V33.3298H4.61086V33.8298H5.11086ZM69.3875 33.8298H69.8875V33.3298H69.3875V33.8298ZM77.0928 2.5H77.33V1.5H77.0928V2.5ZM76.5928 1.99503V2H77.5928V1.99503H76.5928ZM2.85554 2.49503H77.0928V1.49503H2.85554V2.49503ZM2.35554 1V1.99503H3.35554V1H2.35554ZM3.85554 0.5H2.85554V1.5H3.85554V0.5ZM77.33 0.5H3.85554V1.5H77.33V0.5ZM78.33 0.5H77.33V1.5H78.33V0.5ZM78.83 2V1H77.83V2H78.83ZM78.83 50.7447V2H77.83V50.7447H78.83ZM78.83 51.7447V50.7447H77.83V51.7447H78.83ZM77.33 52.2447H78.33V51.2447H77.33V52.2447ZM77.0929 52.2447L77.3301 52.2447L77.33 51.2447L77.0928 51.2447L77.0929 52.2447ZM76.5928 50.7447V51.7447H77.5928V50.7447H76.5928ZM77.33 50.2447H77.0928V51.2447H77.33V50.2447ZM76.83 2V50.7447H77.83V2H76.83ZM1.60022 4.75532H75.1534V3.75532H1.60022V4.75532ZM2.10022 53V4.25532H1.10022V53H2.10022ZM75.1534 52.5H1.60022V53.5H75.1534V52.5ZM74.6534 4.25532V53H75.6534V4.25532H74.6534ZM0.60022 3.75532H1.60022V2.75532H0.60022V3.75532ZM1.10022 4.25532V3.25532H0.10022V4.25532H1.10022ZM1.10022 53V4.25532H0.10022V53H1.10022ZM1.10022 54V53H0.10022V54H1.10022ZM1.60022 53.5H0.60022V54.5H1.60022V53.5ZM75.1534 53.5H1.60022V54.5H75.1534V53.5ZM76.1534 53.5H75.1534V54.5H76.1534V53.5ZM75.6534 53V54H76.6534V53H75.6534ZM75.6534 4.25532V53H76.6534V4.25532H75.6534ZM75.6534 3.25532V4.25532H76.6534V3.25532H75.6534ZM75.1534 3.75532H76.1534V2.75532H75.1534V3.75532ZM1.60022 3.75532H75.1534V2.75532H1.60022V3.75532ZM5.11086 15.0319H69.3875V14.0319H5.11086V15.0319ZM4.61086 13.5319V14.5319H5.61086V13.5319H4.61086ZM69.3875 13.0319H5.11086V14.0319H69.3875V13.0319ZM69.8875 14.5319V13.5319H68.8875V14.5319H69.8875ZM69.3875 24.1809H5.11086V25.1809H69.3875V24.1809ZM68.8875 23.6809V24.6809H69.8875V23.6809H68.8875ZM5.11086 24.1809H69.3875V23.1809H5.11086V24.1809ZM5.61086 24.6809V23.6809H4.61086V24.6809H5.61086ZM5.11086 35.3298H69.3875V34.3298H5.11086V35.3298ZM4.61086 33.8298V34.8298H5.61086V33.8298H4.61086ZM69.3875 33.3298H5.11086V34.3298H69.3875V33.3298ZM69.8875 34.8298V33.8298H68.8875V34.8298H69.8875Z" fill="white"/>
</svg>
